# xmcd CD database file
#
# Track frame offsets:
#	150
#	18007
#	40739
#	61288
#	82817
#	94031
#	113385
#	131464
#	149312
#	165126
#	176467
#	194895
#	216565
#	230545
#
# Disc length: 3324 seconds
#
# Revision: 1
# Processed by: cddbd v1.5.1PL0 Copyright (c) Steve Scherf et al.
# Submitted via: CDex 1.51
#
DISCID=ae0cfa0e
DTITLE=Head Automatica - Tokyo Decadence (Promo)
DYEAR=2003
DGENRE=Electronic Rock
TTITLE0=Brooklyn Is Burning
TTITLE1=Solid Gold Telephone
TTITLE2=Tara Reid Is A Whore
TTITLE3=Mu-Shu Pork Empire
TTITLE4=Young Hollywood
TTITLE5=Zack Morris Is My Hero
TTITLE6=I Shot Andy Warhole
TTITLE7=Disco Hades
TTITLE8=Dance Party Plus
TTITLE9=At The Speed Of A Yellow Bullet
TTITLE10=Everything You Ever Wanted To Know About Being Straight Edge
TTITLE11=Head Automatica Sound System
TTITLE12=Negro Spiritual
TTITLE13=Tip Your Hooker
EXTD=YEAR: 2003
EXTT0=
EXTT1=
EXTT2=
EXTT3=
EXTT4=
EXTT5=
EXTT6=
EXTT7=
EXTT8=
EXTT9=
EXTT10=
EXTT11=
EXTT12=
EXTT13=
PLAYORDER=
